<svg aria-hidden="true" style="position: absolute; width: 0; height: 0; overflow: hidden;" version="1.1" xmlns="http://www.w3.org/2000/svg" xmlns:xlink="http://www.w3.org/1999/xlink">
<defs>
<symbol id="icon-Facebook" viewBox="0 0 32 32">
<path d="M32 16.098c0-8.891-7.163-16.098-16-16.098s-16 7.207-16 16.098c0 8.035 5.851 14.695 13.5 15.902v-11.249h-4.063v-4.653h4.063v-3.547c0-4.035 2.389-6.263 6.043-6.263 1.751 0 3.582 0.314 3.582 0.314v3.962h-2.017c-1.988 0-2.608 1.241-2.608 2.514v3.020h4.437l-0.709 4.653h-3.728v11.249c7.649-1.208 13.5-7.867 13.5-15.902z"></path>
</symbol>
<symbol id="icon-arrow_back" viewBox="0 0 32 32">
<path stroke-linejoin="miter" stroke-linecap="butt" stroke-miterlimit="4" stroke-width="1.3333" d="M16.011 6.249c0.113 0 0.212 0.035 0.321 0.144 0.089 0.083 0.144 0.201 0.144 0.331 0 0 0 0 0 0.001v-0c0 0.116-0.035 0.213-0.144 0.324l-8.481 8.481h17.88c0.161 0 0.263 0.048 0.347 0.133 0.080 0.078 0.13 0.187 0.13 0.307 0 0.010-0 0.020-0.001 0.030l0-0.001c0 0.16-0.045 0.256-0.128 0.337s-0.195 0.133-0.321 0.133c-0.010 0-0.019-0-0.029-0.001l0.001 0h-17.88l8.473 8.473c0.109 0.108 0.147 0.211 0.148 0.333v0.001c0 0.005 0 0.010 0 0.015 0 0.087-0.028 0.167-0.074 0.232l0.001-0.001-0.069 0.081c-0.076 0.088-0.188 0.143-0.313 0.143-0.004 0-0.007-0-0.011-0h0.001c-0.001 0-0.002 0-0.003 0-0.134 0-0.255-0.059-0.338-0.152l-0-0-9.264-9.263c-0.050-0.046-0.091-0.102-0.12-0.163l-0.001-0.003v-0.001c-0.019-0.045-0.031-0.098-0.031-0.154 0-0.004 0-0.008 0-0.012v0.001q0-0.093 0.031-0.163v-0.001c0.030-0.065 0.071-0.12 0.12-0.166l0-0 9.268-9.267c0.085-0.093 0.207-0.151 0.343-0.152h0z"></path>
</symbol>
<symbol id="icon-arrow_forward" viewBox="0 0 32 32">
<path stroke-linejoin="miter" stroke-linecap="butt" stroke-miterlimit="4" stroke-width="1.3333" d="M15.993 6.253c0.095 0 0.177 0.023 0.26 0.080l0.081 0.071 9.264 9.264c0.050 0.046 0.091 0.102 0.12 0.163l0.001 0.003v0.001c0.020 0.046 0.032 0.1 0.032 0.157 0 0.003-0 0.006-0 0.009v-0c0 0.002 0 0.004 0 0.006 0 0.057-0.012 0.111-0.033 0.159l0.001-0.003v0.001c-0.030 0.065-0.071 0.12-0.12 0.166l-0 0-9.273 9.264c-0.121 0.12-0.227 0.156-0.337 0.156-0.107 0-0.204-0.033-0.315-0.147l-0.007-0.008-0.069-0.080c-0.047-0.065-0.075-0.145-0.075-0.233 0-0.004 0-0.008 0-0.012v0.001c0-0.087 0.019-0.163 0.075-0.243l0.069-0.080 8.481-8.481h-17.88c-0.163 0-0.259-0.048-0.34-0.128-0.083-0.081-0.128-0.179-0.128-0.341s0.045-0.26 0.127-0.341h0.001c0.080-0.080 0.177-0.127 0.34-0.128h17.88l-8.473-8.473c-0.070-0.064-0.12-0.148-0.141-0.244l-0.001-0.003-0.007-0.089c-0.001-0.12 0.033-0.219 0.14-0.325l0.001-0.001c0.076-0.088 0.188-0.143 0.313-0.143 0.004 0 0.008 0 0.012 0h-0.001z"></path>
</symbol>
<symbol id="icon-bookmark" viewBox="0 0 32 32">
<path d="M16 24.224l-6.357 2.72q-1.136 0.488-2.156-0.184-1.019-0.673-1.019-1.905v-18.948q0-0.924 0.675-1.601c0.397-0.418 0.956-0.677 1.577-0.677 0.007 0 0.014 0 0.020 0h14.522q0.924 0 1.601 0.677 0.68 0.68 0.679 1.6v18.951q0 1.232-1.024 1.905-1.024 0.672-2.16 0.183zM16 21.793l7.261 3.061v-18.948h-14.523v18.947zM16 5.907h7.261z"></path>
</symbol>
<symbol id="icon-chevron_left" viewBox="0 0 32 32">
<path stroke-linejoin="miter" stroke-linecap="butt" stroke-miterlimit="4" stroke-width="1.3333" d="M18.716 8.864c0.133 0 0.237 0.040 0.341 0.145 0.089 0.081 0.144 0.197 0.144 0.326 0 0.005-0 0.011-0 0.016l0-0.001c0 0.133-0.040 0.236-0.144 0.341l-6.276 6.276 6.276 6.275c0.104 0.103 0.133 0.193 0.129 0.3-0.005 0.138-0.066 0.261-0.161 0.348l-0 0c-0.083 0.090-0.202 0.147-0.334 0.147-0.003 0-0.005-0-0.008-0h0c-0.002 0-0.005 0-0.007 0-0.132 0-0.251-0.056-0.334-0.146l-0-0-6.592-6.591c-0.028-0.030-0.055-0.061-0.080-0.094l-0.002-0.003-0.040-0.069c-0.020-0.050-0.032-0.109-0.032-0.17 0-0.030 0.003-0.059 0.008-0.088l-0 0.003 0.025-0.077c0.030-0.065 0.071-0.12 0.12-0.166l0-0 6.627-6.627c0.081-0.089 0.197-0.144 0.326-0.144 0.005 0 0.010 0 0.015 0l-0.001-0z"></path>
</symbol>
<symbol id="icon-chevron_right" viewBox="0 0 32 32">
<path stroke-linejoin="miter" stroke-linecap="butt" stroke-miterlimit="4" stroke-width="1.3333" d="M12.516 8.897c0.135 0 0.237 0.040 0.341 0.144l6.592 6.593c0.072 0.071 0.107 0.127 0.121 0.165 0.020 0.046 0.032 0.1 0.032 0.157 0 0.003-0 0.007-0 0.010v-0.001c0 0.002 0 0.005 0 0.008 0 0.057-0.012 0.111-0.033 0.16l0.001-0.003c-0.030 0.065-0.071 0.12-0.12 0.166l-0 0-6.627 6.624c-0.103 0.104-0.192 0.133-0.3 0.129-0.138-0.005-0.26-0.066-0.346-0.161l-0-0c-0.090-0.083-0.147-0.202-0.147-0.334 0-0.003 0-0.005 0-0.008v0c0-0.133 0.041-0.237 0.147-0.341l6.241-6.241-6.276-6.276c-0.104-0.104-0.133-0.192-0.129-0.3 0.005-0.139 0.067-0.262 0.162-0.349l0-0c0.081-0.089 0.197-0.144 0.326-0.144 0.005 0 0.010 0 0.015 0l-0.001-0z"></path>
</symbol>
<symbol id="icon-communication" viewBox="0 0 32 32">
<path d="M1.149 21.271v-0.568q0-1.865 1.853-2.449 1.853-0.587 3.283-0.587t3.283 0.584q1.853 0.585 1.853 2.452v0.568zM6.283 15.881c-0.010 0-0.023 0-0.035 0-0.716 0-1.363-0.297-1.824-0.775l-0.001-0.001c-0.477-0.463-0.774-1.111-0.774-1.828 0-0.014 0-0.027 0-0.041l-0 0.002q0-1.089 0.775-1.863 0.776-0.773 1.863-0.773c0.011-0 0.024-0 0.036-0 0.716 0 1.363 0.297 1.824 0.775l0.001 0.001q0.773 0.776 0.773 1.863t-0.775 1.865c-0.462 0.479-1.109 0.776-1.825 0.776-0.013 0-0.026-0-0.040-0l0.002 0zM13.245 17.881c-0.008 0-0.018 0-0.028 0-0.234 0-0.447-0.092-0.605-0.241l0 0c-0.154-0.148-0.25-0.356-0.25-0.587 0-0.010 0-0.021 0.001-0.031l-0 0.001q0-0.187 0.249-0.649 0.26-0.367 0.409-0.767t0.149-0.833-0.149-0.859c-0.101-0.287-0.241-0.536-0.416-0.754l0.004 0.005c-0.066-0.088-0.125-0.187-0.173-0.293l-0.004-0.010c-0.044-0.096-0.069-0.208-0.069-0.326 0-0.003 0-0.005 0-0.008v0c-0-0.009-0-0.019-0-0.029 0-0.469 0.38-0.849 0.849-0.849 0.011 0 0.023 0 0.034 0.001l-0.002-0c0.124 0.001 0.243 0.020 0.355 0.056l-0.008-0.002c0.113 0.033 0.208 0.099 0.276 0.187l0.001 0.001q0.583 0.609 0.853 1.353 0.271 0.747 0.271 1.527 0 0.773-0.292 1.556c-0.192 0.525-0.484 0.972-0.856 1.34l-0 0c-0.074 0.078-0.168 0.137-0.273 0.169l-0.004 0.001c-0.096 0.025-0.206 0.039-0.319 0.039-0.001 0-0.003 0-0.004 0h0zM15.784 20.417c-0.011 0.001-0.024 0.001-0.037 0.001-0.464 0-0.84-0.376-0.84-0.84 0-0.017 0.001-0.033 0.001-0.050l-0 0.002q0-0.179 0.064-0.331 0.067-0.152 0.173-0.296 0.819-0.959 1.215-2.005c0.248-0.63 0.394-1.361 0.396-2.124v-0.001q0-1.080-0.396-2.143c-0.297-0.771-0.709-1.434-1.221-2.005l0.005 0.006c-0.066-0.084-0.124-0.18-0.169-0.282l-0.003-0.009c-0.041-0.093-0.064-0.201-0.064-0.314 0-0.007 0-0.014 0-0.022l-0 0.001q0-0.387 0.249-0.633c0.156-0.152 0.369-0.246 0.605-0.246 0.010 0 0.019 0 0.029 0l-0.001-0q0.196 0 0.364 0.091 0.167 0.091 0.307 0.243 1.044 1.2 1.56 2.547c0.326 0.82 0.516 1.77 0.516 2.764s-0.189 1.944-0.534 2.816l0.018-0.052c-0.39 0.981-0.917 1.824-1.567 2.555l0.008-0.009c-0.079 0.104-0.179 0.188-0.294 0.248l-0.005 0.002c-0.104 0.053-0.227 0.084-0.357 0.084-0.007 0-0.014-0-0.021-0l0.001 0zM20.58 21.272v-0.568q0-1.867 1.853-2.452 1.851-0.584 3.283-0.584 1.431 0 3.283 0.587 1.853 0.585 1.853 2.449v0.568zM25.713 15.883c-0.010 0-0.023 0-0.035 0-0.716 0-1.363-0.297-1.824-0.775l-0.001-0.001c-0.477-0.463-0.774-1.111-0.774-1.828 0-0.014 0-0.027 0-0.041l-0 0.002q0-1.089 0.775-1.863 0.773-0.773 1.863-0.773c0.010-0 0.023-0 0.035-0 0.716 0 1.363 0.297 1.824 0.775l0.001 0.001q0.773 0.776 0.773 1.863t-0.773 1.864c-0.462 0.479-1.109 0.776-1.825 0.776-0.013 0-0.026-0-0.040-0l0.002 0z"></path>
</symbol>
<symbol id="icon-edit" viewBox="0 0 32 32">
<path d="M6.064 25.928h1.475l15.327-15.293-1.459-1.467-15.343 15.301zM4.936 28.199c-0.010 0-0.022 0.001-0.034 0.001-0.608 0-1.101-0.493-1.101-1.101 0-0.012 0-0.024 0.001-0.036l-0 0.002v-2.56q0-0.457 0.187-0.892 0.187-0.436 0.493-0.741l18.469-18.445q0.273-0.284 0.661-0.441 0.387-0.157 0.803-0.157 0.381 0 0.764 0.157 0.384 0.157 0.707 0.433l1.731 1.705q0.307 0.324 0.449 0.711 0.14 0.387 0.141 0.777 0 0.389-0.159 0.789t-0.432 0.683l-18.471 18.437c-0.209 0.204-0.456 0.37-0.73 0.487l-0.016 0.006q-0.431 0.187-0.887 0.187zM22.14 9.893l-0.733-0.725 1.459 1.467z"></path>
</symbol>
<symbol id="icon-close" viewBox="0 0 32 32">
<path stroke-linejoin="miter" stroke-linecap="butt" stroke-miterlimit="4" stroke-width="1.3333" d="M23.467 7.9c0.219 0 0.355 0.064 0.461 0.172 0.108 0.108 0.175 0.258 0.175 0.423 0 0.013-0 0.027-0.001 0.040l0-0.002c0.001 0.011 0.001 0.025 0.001 0.038 0 0.165-0.067 0.315-0.175 0.423l-7.005 7.005 7.005 7.005c0.107 0.107 0.173 0.243 0.173 0.461 0.001 0.011 0.001 0.025 0.001 0.038 0 0.165-0.067 0.315-0.175 0.423l0-0c-0.108 0.108-0.258 0.175-0.423 0.175-0.013 0-0.027-0-0.040-0.001l0.002 0c-0.012 0.001-0.026 0.001-0.040 0.001-0.165 0-0.315-0.067-0.423-0.175l-7.004-7.004-7.005 7.005c-0.108 0.106-0.257 0.172-0.421 0.172-0.015 0-0.029-0.001-0.044-0.002l0.002 0c-0.012 0.001-0.026 0.001-0.040 0.001-0.164 0-0.312-0.066-0.421-0.172l0 0c-0.108-0.108-0.175-0.258-0.175-0.423 0-0.014 0-0.028 0.001-0.041l-0 0.002c0-0.219 0.067-0.356 0.173-0.463l7.004-7.004-0.472-0.471-6.533-6.533c-0.106-0.108-0.172-0.257-0.172-0.421 0-0.015 0.001-0.029 0.002-0.044l-0 0.002c-0.001-0.012-0.001-0.026-0.001-0.040 0-0.164 0.066-0.313 0.173-0.422l-0 0c0.108-0.107 0.257-0.173 0.422-0.173 0.013 0 0.027 0 0.040 0.001l-0.002-0c0.22 0 0.356 0.064 0.463 0.172l7.005 7.004 7.004-7.004c0.108-0.107 0.257-0.173 0.422-0.173 0.014 0 0.029 0 0.043 0.002l-0.002-0z"></path>
</symbol>
<symbol id="icon-filter_alt" viewBox="0 0 32 32">
<path d="M14.667 26.867c-0.011 0-0.024 0-0.038 0-0.412 0-0.785-0.17-1.051-0.444l-0-0c-0.274-0.267-0.444-0.639-0.444-1.052 0-0.013 0-0.026 0.001-0.040l-0 0.002v-7.928l-7.919-10.12q-0.547-0.668-0.16-1.413 0.384-0.747 1.212-0.747h19.467q0.827 0 1.213 0.747 0.384 0.745-0.155 1.413l-7.919 10.12v7.992q0 0.631-0.423 1.049-0.424 0.42-1.053 0.419zM16 17.347l7.848-9.941h-15.688z"></path>
</symbol>
<symbol id="icon-Instagram" viewBox="0 0 32 32">
<path d="M16.007 6.488c3.205 0 3.587 0.013 4.845 0.071 1.173 0.052 1.805 0.248 2.227 0.413 0.559 0.215 0.96 0.477 1.379 0.893 0.421 0.424 0.68 0.821 0.899 1.38 0.165 0.421 0.361 1.059 0.413 2.227 0.056 1.265 0.071 1.644 0.071 4.847 0 3.2-0.015 3.584-0.071 4.845-0.052 1.173-0.248 1.805-0.413 2.227-0.216 0.559-0.477 0.96-0.895 1.377-0.423 0.423-0.82 0.68-1.377 0.9-0.423 0.164-1.060 0.36-2.227 0.413-1.267 0.056-1.645 0.071-4.847 0.071s-3.585-0.015-4.847-0.071c-1.173-0.053-1.804-0.248-2.227-0.413-0.54-0.203-1.001-0.508-1.378-0.894l-0.001-0.001c-0.388-0.377-0.694-0.837-0.89-1.352l-0.009-0.026c-0.165-0.423-0.361-1.060-0.413-2.227-0.056-1.267-0.071-1.645-0.071-4.847s0.015-3.587 0.071-4.847c0.052-1.173 0.248-1.804 0.413-2.227 0.216-0.557 0.477-0.96 0.895-1.379 0.378-0.389 0.838-0.696 1.353-0.891l0.026-0.009c0.421-0.164 1.059-0.36 2.227-0.412 1.26-0.056 1.64-0.071 4.847-0.071zM16.007 4.328c-3.257 0-3.664 0.013-4.944 0.071-1.276 0.056-2.152 0.263-2.911 0.557-0.833 0.318-1.543 0.79-2.127 1.386l-0.001 0.001c-0.596 0.584-1.068 1.292-1.373 2.084l-0.014 0.040c-0.296 0.764-0.503 1.636-0.559 2.911-0.056 1.284-0.071 1.691-0.071 4.949s0.015 3.664 0.071 4.944c0.056 1.275 0.263 2.152 0.559 2.911 0.318 0.833 0.79 1.543 1.386 2.127l0.001 0.001c0.584 0.595 1.292 1.065 2.083 1.369l0.040 0.014c0.764 0.295 1.636 0.501 2.911 0.557 1.28 0.056 1.688 0.071 4.945 0.071s3.665-0.013 4.944-0.071c1.275-0.056 2.152-0.263 2.911-0.557 0.831-0.318 1.539-0.788 2.122-1.382l0.001-0.001c0.667-0.667 1.080-1.336 1.384-2.124 0.295-0.764 0.501-1.635 0.557-2.909 0.056-1.28 0.071-1.688 0.071-4.945s-0.013-3.665-0.071-4.945c-0.056-1.275-0.263-2.151-0.557-2.909-0.305-0.838-0.774-1.551-1.372-2.132l-0.001-0.001c-0.584-0.595-1.293-1.065-2.084-1.369l-0.040-0.014c-0.765-0.296-1.636-0.501-2.911-0.557-1.284-0.061-1.693-0.076-4.949-0.076z"></path>
<path d="M16.007 10.163c-3.337 0.088-6.008 2.814-6.008 6.163s2.671 6.076 6 6.163l0.008 0c3.365-0.051 6.073-2.791 6.073-6.163s-2.708-6.112-6.069-6.163l-0.005-0zM16.007 20.323c-2.208 0-3.997-1.79-3.997-3.997s1.79-3.997 3.997-3.997v0c2.208 0 3.998 1.79 3.998 3.998s-1.79 3.998-3.998 3.998v0zM23.852 9.92c0 0.013 0.001 0.028 0.001 0.044 0 0.795-0.645 1.44-1.44 1.44s-1.44-0.645-1.44-1.44c0-0.015 0-0.031 0.001-0.046l-0 0.002c0.024-0.776 0.659-1.396 1.439-1.396s1.415 0.62 1.439 1.394l0 0.002z"></path>
</symbol>
<symbol id="icon-keyboard_arrow_down" viewBox="0 0 32 32">
<path stroke-linejoin="miter" stroke-linecap="butt" stroke-miterlimit="4" stroke-width="1.3333" d="M9.449 12.031c0.133 0 0.237 0.040 0.341 0.145l6.208 6.244 6.244-6.244c0.103-0.104 0.192-0.133 0.299-0.129 0.139 0.005 0.262 0.067 0.349 0.162l0 0c0.089 0.081 0.144 0.197 0.144 0.326 0 0.005-0 0.011-0 0.016l0-0.001c0 0.133-0.040 0.236-0.144 0.34l-6.559 6.559c-0.046 0.050-0.102 0.092-0.163 0.121l-0.003 0.001c-0.047 0.021-0.102 0.033-0.159 0.033-0.034 0-0.067-0.004-0.098-0.012l0.003 0.001-0.077-0.021-0.071-0.040c-0.035-0.028-0.066-0.055-0.095-0.083l-6.592-6.59c-0.080-0.073-0.13-0.178-0.13-0.295 0-0.008 0-0.017 0.001-0.025l-0 0.001c0.002-0.144 0.064-0.273 0.162-0.364l0-0c0.081-0.090 0.197-0.146 0.327-0.146 0.005 0 0.009 0 0.014 0l-0.001-0z"></path>
</symbol>
<symbol id="icon-keyboard_arrow_up" viewBox="0 0 32 32">
<path stroke-linejoin="miter" stroke-linecap="butt" stroke-miterlimit="4" stroke-width="1.3333" d="M16 11.605c0.124 0 0.227 0.037 0.333 0.144l6.591 6.593c0.088 0.078 0.143 0.192 0.143 0.318 0 0.002 0 0.004-0 0.006v-0c0 0.001 0 0.003 0 0.004 0 0.127-0.055 0.241-0.144 0.319l-0 0c-0.081 0.090-0.197 0.146-0.327 0.146-0.005 0-0.010-0-0.015-0l0.001 0c-0.133 0-0.236-0.041-0.34-0.145l-6.245-6.208-6.24 6.24c-0.104 0.104-0.192 0.133-0.3 0.129-0.138-0.005-0.261-0.065-0.348-0.16l-0-0c-0.090-0.081-0.146-0.197-0.146-0.327 0-0.006 0-0.011 0-0.016l-0 0.001c0-0.133 0.040-0.236 0.145-0.341l6.559-6.557c0.081-0.089 0.197-0.145 0.327-0.145 0.001 0 0.003 0 0.004 0h-0z"></path>
</symbol>
<symbol id="icon-logout" viewBox="0 0 32 32">
<path d="M6.072 28.2q-0.92 0-1.596-0.676c-0.416-0.399-0.675-0.959-0.675-1.58 0-0.006 0-0.011 0-0.017v0.001-19.856q0-0.924 0.675-1.601c0.397-0.418 0.956-0.677 1.577-0.677 0.007 0 0.014 0 0.020 0h8.806q0.48 0 0.808 0.333c0.203 0.203 0.328 0.483 0.328 0.792 0 0.008-0 0.017-0 0.025l0-0.001c0 0.008 0 0.017 0 0.026 0 0.306-0.126 0.582-0.328 0.781l-0 0c-0.2 0.2-0.476 0.323-0.781 0.323-0.009 0-0.019-0-0.028-0l0.001 0h-8.807v19.856h8.807c0.008-0 0.017-0 0.026-0 0.307 0 0.584 0.126 0.782 0.329l0 0c0.203 0.201 0.328 0.479 0.328 0.787 0 0.009-0 0.019-0 0.028l0-0.001c0 0.007 0 0.016 0 0.024 0 0.306-0.126 0.582-0.328 0.781l-0 0c-0.2 0.2-0.476 0.323-0.781 0.323-0.009 0-0.019-0-0.028-0l0.001 0zM23.856 17.136h-10.768c-0.008 0-0.017 0-0.026 0-0.307 0-0.584-0.126-0.782-0.329l-0-0c-0.203-0.201-0.328-0.479-0.328-0.787 0-0.009 0-0.019 0-0.028l-0 0.001q0-0.483 0.328-0.805c0.2-0.2 0.477-0.324 0.783-0.324 0.009 0 0.018 0 0.027 0l-0.001-0h10.701l-2.564-2.564c-0.2-0.19-0.325-0.458-0.325-0.755 0-0.016 0-0.031 0.001-0.047l-0 0.002c0.011-0.314 0.146-0.594 0.357-0.794l0-0c0.197-0.21 0.477-0.34 0.787-0.34 0.008 0 0.016 0 0.024 0l-0.001-0c0 0 0.001 0 0.001 0 0.319 0 0.607 0.132 0.813 0.344l0 0 4.529 4.528q0.332 0.343 0.332 0.797c0 0.001 0 0.002 0 0.003 0 0.31-0.128 0.59-0.333 0.791l-0 0-4.493 4.495c-0.188 0.203-0.456 0.329-0.753 0.329-0.014 0-0.028-0-0.042-0.001l0.002 0c-0.319-0.010-0.604-0.143-0.813-0.352l-0-0c-0.204-0.207-0.331-0.492-0.331-0.806 0-0.002 0-0.005 0-0.007v0c-0-0.006-0-0.014-0-0.021 0-0.313 0.133-0.594 0.345-0.791l0.001-0.001z"></path>
</symbol>
<symbol id="icon-map_search" viewBox="0 0 32 32">
<path d="M5.739 27.459c-0.175 0.099-0.385 0.157-0.608 0.157-0.259 0-0.5-0.079-0.7-0.214l0.004 0.003q-0.633-0.393-0.633-1.172v-18.6q0-0.496 0.285-0.887c0.189-0.255 0.443-0.452 0.738-0.567l0.011-0.004 6.044-2.125c0.201-0.080 0.433-0.127 0.677-0.127 0.027 0 0.055 0.001 0.082 0.002l-0.004-0q0.381 0.017 0.755 0.125l8.013 2.809 5.86-2.351q0.669-0.307 1.308 0.069 0.64 0.376 0.639 1.155v11.376q0 0.499-0.328 0.804c-0.204 0.19-0.479 0.307-0.781 0.307-0.012 0-0.024-0-0.037-0.001l0.002 0c-0.011 0-0.023 0.001-0.035 0.001-0.608 0-1.101-0.493-1.101-1.101 0-0.015 0-0.029 0.001-0.044l-0 0.002v-10.107l-4.663 1.776v5.613c0 0.008 0 0.018 0 0.027 0 0.538-0.436 0.973-0.973 0.973-0.009 0-0.019-0-0.028-0l0.001 0c-0.008 0-0.018 0-0.027 0-0.538 0-0.973-0.436-0.973-0.973 0-0.009 0-0.019 0-0.028l-0 0.001v-5.613l-6.533-2.2v16.959q0 0.529-0.285 0.965c-0.186 0.284-0.451 0.501-0.765 0.623l-0.011 0.004zM6.072 24.988l4.661-1.775v-16.667l-4.661 1.544zM21.936 24.845q1.211 0 2.041-0.843t0.823-2.013q-0.008-1.212-0.831-2.039t-2.033-0.827-2.035 0.827-0.823 2.039 0.823 2.033 2.035 0.823zM21.936 27.125q-2.124 0-3.629-1.507t-1.507-3.629q0-2.156 1.507-3.651c0.904-0.922 2.162-1.494 3.554-1.494 0.027 0 0.053 0 0.080 0.001l-0.004-0q2.156 0 3.649 1.493t1.493 3.651c0 0.006 0 0.013 0 0.020 0 0.997-0.296 1.926-0.805 2.702l0.012-0.019 2.645 2.653c0.191 0.184 0.31 0.443 0.311 0.729v0c0 0.005 0 0.011 0 0.016 0 0.281-0.119 0.535-0.31 0.712l-0.001 0.001c-0.178 0.189-0.43 0.307-0.709 0.307-0.004 0-0.008-0-0.011-0h0.001c-0.002 0-0.004 0-0.005 0-0.286 0-0.546-0.117-0.732-0.307l-0-0-2.637-2.597q-0.633 0.46-1.351 0.689c-0.45 0.145-0.967 0.228-1.503 0.228-0.016 0-0.032-0-0.048-0l0.002 0z"></path>
</symbol>
<symbol id="icon-menu" viewBox="0 0 32 32">
<path d="M4.936 24.295c-0.008 0-0.017 0-0.026 0-0.307 0-0.584-0.126-0.782-0.329l-0-0c-0.202-0.203-0.327-0.482-0.327-0.791 0-0.010 0-0.020 0-0.031l-0 0.002q0-0.483 0.327-0.807c0.2-0.2 0.476-0.323 0.781-0.323 0.009 0 0.019 0 0.028 0l-0.001-0h22.128q0.48 0 0.813 0.329c0.204 0.201 0.331 0.48 0.331 0.789 0 0.008-0 0.016-0 0.024l0-0.001q0 0.493-0.332 0.813c-0.202 0.2-0.481 0.324-0.788 0.324-0.009 0-0.018-0-0.026-0l0.001 0zM4.936 17.135c-0.008 0-0.017 0-0.027 0-0.306 0-0.582-0.126-0.781-0.328l-0-0c-0.202-0.201-0.327-0.478-0.327-0.785 0-0.010 0-0.020 0-0.029l-0 0.001q0-0.483 0.327-0.805c0.2-0.2 0.477-0.324 0.783-0.324 0.009 0 0.018 0 0.027 0l-0.001-0h22.128q0.48 0 0.813 0.329c0.204 0.201 0.331 0.48 0.331 0.789 0 0.008-0 0.017-0 0.025l0-0.001c0 0.003 0 0.006 0 0.010 0 0.619-0.501 1.12-1.12 1.12-0.008 0-0.017-0-0.025-0l0.001 0zM4.936 9.984c-0.008 0-0.017 0-0.026 0-0.307 0-0.584-0.126-0.782-0.329l-0-0c-0.202-0.203-0.327-0.482-0.327-0.791 0-0.010 0-0.020 0-0.031l-0 0.002q0-0.483 0.327-0.807c0.2-0.2 0.476-0.323 0.781-0.323 0.009 0 0.019 0 0.028 0l-0.001-0h22.128q0.48 0 0.813 0.329c0.204 0.201 0.331 0.48 0.331 0.789 0 0.008-0 0.016-0 0.024l0-0.001q0 0.492-0.332 0.813c-0.202 0.2-0.481 0.324-0.788 0.324-0.009 0-0.018-0-0.026-0l0.001 0z"></path>
</symbol>
<symbol id="icon-select_check_box" viewBox="0 0 32 32">
<path d="M6.072 28.2c-0.009 0-0.021 0-0.032 0-0.617 0-1.174-0.255-1.572-0.666l-0.001-0.001c-0.411-0.398-0.667-0.955-0.667-1.572 0-0.012 0-0.023 0-0.035l-0 0.002v-19.856q0-0.94 0.667-1.609c0.398-0.413 0.957-0.67 1.575-0.67 0.010 0 0.021 0 0.031 0l-0.002-0h18.691q0.48 0 0.808 0.333c0.202 0.203 0.327 0.482 0.327 0.791 0 0.009-0 0.018-0 0.026l0-0.001c0 0.008 0 0.017 0 0.027 0 0.305-0.125 0.581-0.327 0.78l-0 0c-0.2 0.2-0.476 0.323-0.781 0.323-0.009 0-0.019-0-0.028-0l0.001 0h-18.691v19.856h19.856v-11.088q0-0.48 0.329-0.808c0.201-0.203 0.479-0.328 0.787-0.328 0.009 0 0.018 0 0.027 0l-0.001-0q0.483 0 0.811 0.328c0.203 0.199 0.328 0.475 0.328 0.781 0 0.009-0 0.019-0 0.028l0-0.001v11.089q0 0.939-0.671 1.604-0.669 0.667-1.609 0.667zM15.415 19.425l12.073-12.073c0.185-0.195 0.446-0.316 0.735-0.316 0 0 0.001 0 0.001 0h-0q0.417 0 0.731 0.316c0.193 0.185 0.313 0.445 0.313 0.733 0 0.002 0 0.003 0 0.005v-0q0 0.42-0.308 0.719l-12.741 12.741c-0.204 0.209-0.488 0.339-0.802 0.339-0.001 0-0.003 0-0.004 0h0c-0.002 0-0.005 0-0.008 0-0.312 0-0.593-0.13-0.792-0.34l-5.867-5.864c-0.195-0.184-0.317-0.444-0.317-0.732s0.122-0.548 0.316-0.732l0.001-0c0.183-0.195 0.442-0.316 0.729-0.316v0c0.287 0 0.545 0.122 0.727 0.315l0.001 0.001z"></path>
</symbol>
<symbol id="icon-star_filled" viewBox="0 0 32 32">
<path d="M16.008 21.885l-5.64 4.296q-0.34 0.256-0.687 0.224c-0.243-0.024-0.463-0.105-0.652-0.227l0.006 0.003c-0.193-0.123-0.341-0.301-0.424-0.511l-0.002-0.007c-0.045-0.119-0.071-0.256-0.071-0.399 0-0.119 0.018-0.235 0.052-0.343l-0.002 0.008 2.152-7.007-5.531-3.98c-0.21-0.135-0.366-0.338-0.438-0.577l-0.002-0.007c-0.029-0.092-0.045-0.197-0.045-0.307 0-0.129 0.023-0.253 0.065-0.367l-0.002 0.007q0.116-0.305 0.377-0.551c0.171-0.153 0.398-0.246 0.647-0.246 0.016 0 0.031 0 0.047 0.001l-0.002-0h6.857l2.193-7.307c0.060-0.261 0.214-0.478 0.423-0.619l0.004-0.002c0.187-0.129 0.418-0.206 0.668-0.208h0q0.347 0 0.667 0.208 0.32 0.207 0.436 0.621l2.185 7.307h6.867c0.012-0.001 0.026-0.001 0.041-0.001 0.247 0 0.473 0.093 0.643 0.247l-0.001-0.001q0.26 0.244 0.377 0.551c0.039 0.106 0.062 0.229 0.062 0.358 0 0.11-0.017 0.217-0.048 0.317l0.002-0.008c-0.074 0.246-0.229 0.449-0.435 0.582l-0.004 0.002-5.531 3.98 2.152 7c0.032 0.101 0.050 0.216 0.050 0.336 0 0.144-0.026 0.281-0.074 0.408l0.003-0.008c-0.086 0.216-0.234 0.393-0.422 0.512l-0.004 0.003q-0.299 0.2-0.643 0.232-0.344 0.033-0.684-0.232z"></path>
</symbol>
<symbol id="icon-star_half" viewBox="0 0 32 32">
<path d="M16 8v12.613l5.121 3.093-1.376-5.797 4.505-3.92-5.94-0.517zM16 23.256l-6.216 3.749c-0.17 0.107-0.377 0.171-0.598 0.171-0.248 0-0.477-0.080-0.664-0.215l0.003 0.002c-0.173-0.124-0.309-0.291-0.392-0.486l-0.003-0.008c-0.052-0.127-0.082-0.274-0.082-0.428 0-0.090 0.010-0.178 0.030-0.263l-0.002 0.008 1.64-7.083-5.481-4.783c-0.18-0.144-0.31-0.344-0.364-0.573l-0.001-0.007c-0.019-0.084-0.030-0.181-0.030-0.28 0-0.125 0.017-0.246 0.049-0.36l-0.002 0.009c0.055-0.212 0.177-0.391 0.342-0.516l0.002-0.002c0.179-0.139 0.403-0.228 0.647-0.245l0.004-0 7.248-0.633 2.808-6.691c0.093-0.221 0.25-0.399 0.448-0.515l0.005-0.003c0.174-0.105 0.383-0.168 0.608-0.169h0q0.307 0 0.609 0.169c0.203 0.119 0.36 0.297 0.449 0.51l0.003 0.007 2.808 6.691 7.257 0.633c0.244 0.019 0.464 0.108 0.644 0.247l-0.003-0.002q0.271 0.211 0.344 0.517 0.084 0.307 0.017 0.631c-0.056 0.236-0.186 0.436-0.363 0.578l-0.002 0.002-5.481 4.783 1.64 7.083c0.018 0.077 0.028 0.165 0.028 0.255 0 0.154-0.030 0.301-0.084 0.435l0.003-0.008c-0.17 0.401-0.549 0.681-0.997 0.705l-0.003 0c-0.018 0.001-0.039 0.002-0.060 0.002-0.22 0-0.425-0.064-0.597-0.175l0.004 0.003z"></path>
</symbol>
<symbol id="icon-star_rate" viewBox="0 0 32 32">
<path d="M11.433 22.567l4.567-3.467 4.567 3.467-1.833-5.767 4.2-2.733h-5.033l-1.9-5.767-1.9 5.767h-5.033l4.2 2.733zM16.008 21.884l-5.64 4.297q-0.34 0.256-0.687 0.224c-0.243-0.024-0.463-0.105-0.652-0.227l0.006 0.003c-0.193-0.123-0.341-0.301-0.424-0.511l-0.002-0.007c-0.045-0.119-0.071-0.256-0.071-0.399 0-0.119 0.018-0.235 0.052-0.343l-0.002 0.008 2.152-7.007-5.531-3.98c-0.21-0.135-0.366-0.338-0.438-0.577l-0.002-0.007c-0.029-0.092-0.045-0.197-0.045-0.307 0-0.129 0.023-0.253 0.065-0.367l-0.002 0.007q0.116-0.305 0.377-0.551c0.171-0.153 0.398-0.246 0.647-0.246 0.016 0 0.031 0 0.047 0.001l-0.002-0h6.857l2.193-7.307c0.060-0.261 0.214-0.478 0.423-0.619l0.004-0.002c0.187-0.129 0.418-0.206 0.668-0.208h0q0.347 0 0.667 0.208 0.32 0.207 0.436 0.621l2.185 7.307h6.867c0.012-0.001 0.026-0.001 0.041-0.001 0.247 0 0.473 0.093 0.643 0.247l-0.001-0.001q0.26 0.244 0.377 0.551c0.039 0.106 0.062 0.229 0.062 0.358 0 0.11-0.017 0.217-0.048 0.317l0.002-0.008c-0.074 0.246-0.229 0.449-0.435 0.582l-0.004 0.002-5.531 3.98 2.152 7c0.032 0.101 0.050 0.216 0.050 0.336 0 0.144-0.026 0.281-0.074 0.408l0.003-0.008c-0.086 0.216-0.234 0.393-0.422 0.512l-0.004 0.003q-0.299 0.2-0.643 0.232-0.344 0.033-0.684-0.232z"></path>
</symbol>
<symbol id="icon-X" viewBox="0 0 32 32">
<path d="M22.901 5.657h3.68l-8.040 9.036 9.459 12.297h-7.405l-5.8-7.459-6.639 7.459h-3.683l8.6-9.667-9.073-11.667h7.593l5.244 6.816zM21.609 24.824h2.040l-13.164-17.115h-2.187z"></path>
</symbol>
<symbol id="icon-Youtube" viewBox="0 0 32 32">
<path d="M28.791 9.604c-0.315-1.149-1.201-2.037-2.326-2.349l-0.023-0.006c-2.088-0.573-10.441-0.583-10.441-0.583s-8.352-0.009-10.441 0.539c-1.146 0.334-2.029 1.222-2.349 2.347l-0.006 0.024c-0.551 2.088-0.556 6.419-0.556 6.419s-0.005 4.352 0.541 6.419c0.307 1.143 1.207 2.045 2.351 2.353 2.109 0.573 10.44 0.583 10.44 0.583s8.353 0.009 10.44-0.537c1.148-0.32 2.034-1.204 2.352-2.327l0.006-0.024c0.552-2.087 0.556-6.416 0.556-6.416s0.027-4.353-0.543-6.441zM13.328 20.007l0.007-8 6.943 4.007z"></path>
</symbol>
</defs>
</svg>
